<mxfile host="app.diagrams.net" modified="2024-05-21T14:12:05.836Z" agent="Mozilla/5.0 (Macintosh; Intel Mac OS X 10_15_7) AppleWebKit/537.36 (KHTML, like Gecko) Chrome/124.0.0.0 Safari/537.36" etag="9ee7iqPI4mc-asceAmni" version="24.4.4" type="github">
  <diagram name="第 1 页" id="LOv7R5T8Agqh-tpL3oU9">
    <mxGraphModel dx="607" dy="384" grid="1" gridSize="10" guides="1" tooltips="1" connect="1" arrows="1" fold="1" page="1" pageScale="1" pageWidth="827" pageHeight="1169" math="0" shadow="0">
      <root>
        <mxCell id="0" />
        <mxCell id="1" parent="0" />
        <mxCell id="jJbhg0X4bCZ42aJdjo_Q-110" value="" style="rounded=0;whiteSpace=wrap;html=1;fillColor=#f5f5f5;strokeColor=#666666;fontColor=#333333;" vertex="1" parent="1">
          <mxGeometry x="50" y="109" width="630" height="461" as="geometry" />
        </mxCell>
        <mxCell id="jJbhg0X4bCZ42aJdjo_Q-2" value="持久层" style="text;html=1;align=center;verticalAlign=middle;whiteSpace=wrap;rounded=0;" vertex="1" parent="1">
          <mxGeometry x="60" y="510" width="60" height="30" as="geometry" />
        </mxCell>
        <mxCell id="jJbhg0X4bCZ42aJdjo_Q-3" value="服务层" style="text;html=1;align=center;verticalAlign=middle;whiteSpace=wrap;rounded=0;" vertex="1" parent="1">
          <mxGeometry x="60" y="380" width="60" height="30" as="geometry" />
        </mxCell>
        <mxCell id="jJbhg0X4bCZ42aJdjo_Q-4" value="RDB(缓存)" style="rounded=0;whiteSpace=wrap;html=1;fillColor=#fa6800;fontColor=#000000;strokeColor=#C73500;" vertex="1" parent="1">
          <mxGeometry x="140" y="505" width="160" height="40" as="geometry" />
        </mxCell>
        <mxCell id="jJbhg0X4bCZ42aJdjo_Q-83" style="edgeStyle=orthogonalEdgeStyle;rounded=0;orthogonalLoop=1;jettySize=auto;html=1;entryX=0;entryY=0.75;entryDx=0;entryDy=0;" edge="1" parent="1" source="jJbhg0X4bCZ42aJdjo_Q-6" target="jJbhg0X4bCZ42aJdjo_Q-61">
          <mxGeometry relative="1" as="geometry" />
        </mxCell>
        <mxCell id="jJbhg0X4bCZ42aJdjo_Q-84" style="edgeStyle=orthogonalEdgeStyle;rounded=0;orthogonalLoop=1;jettySize=auto;html=1;entryX=0;entryY=0.5;entryDx=0;entryDy=0;" edge="1" parent="1" source="jJbhg0X4bCZ42aJdjo_Q-6" target="jJbhg0X4bCZ42aJdjo_Q-62">
          <mxGeometry relative="1" as="geometry" />
        </mxCell>
        <mxCell id="jJbhg0X4bCZ42aJdjo_Q-85" value="同步" style="edgeLabel;html=1;align=center;verticalAlign=middle;resizable=0;points=[];" vertex="1" connectable="0" parent="jJbhg0X4bCZ42aJdjo_Q-84">
          <mxGeometry x="-0.4684" y="-1" relative="1" as="geometry">
            <mxPoint as="offset" />
          </mxGeometry>
        </mxCell>
        <mxCell id="jJbhg0X4bCZ42aJdjo_Q-6" value="DB(data Source)" style="rounded=0;whiteSpace=wrap;html=1;fillColor=#60a917;fontColor=#ffffff;strokeColor=#2D7600;" vertex="1" parent="1">
          <mxGeometry x="330" y="505" width="160" height="40" as="geometry" />
        </mxCell>
        <mxCell id="jJbhg0X4bCZ42aJdjo_Q-7" value="" style="rounded=0;whiteSpace=wrap;html=1;fillColor=#d5e8d4;strokeColor=#82b366;" vertex="1" parent="1">
          <mxGeometry x="140" y="320" width="350" height="160" as="geometry" />
        </mxCell>
        <mxCell id="jJbhg0X4bCZ42aJdjo_Q-8" value="外部服务" style="text;html=1;align=center;verticalAlign=middle;whiteSpace=wrap;rounded=0;" vertex="1" parent="1">
          <mxGeometry x="60" y="271" width="60" height="30" as="geometry" />
        </mxCell>
        <mxCell id="jJbhg0X4bCZ42aJdjo_Q-9" value="训练" style="rounded=0;whiteSpace=wrap;html=1;fillColor=#b0e3e6;strokeColor=#0e8088;" vertex="1" parent="1">
          <mxGeometry x="140" y="275" width="80" height="20" as="geometry" />
        </mxCell>
        <mxCell id="jJbhg0X4bCZ42aJdjo_Q-10" value="推理" style="rounded=0;whiteSpace=wrap;html=1;fillColor=#b1ddf0;strokeColor=#10739e;" vertex="1" parent="1">
          <mxGeometry x="230" y="275" width="80" height="20" as="geometry" />
        </mxCell>
        <mxCell id="jJbhg0X4bCZ42aJdjo_Q-90" style="edgeStyle=orthogonalEdgeStyle;rounded=0;orthogonalLoop=1;jettySize=auto;html=1;entryX=0;entryY=0.5;entryDx=0;entryDy=0;endArrow=openAsync;endFill=0;dashed=1;fillColor=#e51400;strokeColor=#B20000;" edge="1" parent="1" source="jJbhg0X4bCZ42aJdjo_Q-11" target="jJbhg0X4bCZ42aJdjo_Q-61">
          <mxGeometry relative="1" as="geometry">
            <Array as="points">
              <mxPoint x="360" y="300" />
              <mxPoint x="500" y="300" />
              <mxPoint x="500" y="501" />
            </Array>
          </mxGeometry>
        </mxCell>
        <mxCell id="jJbhg0X4bCZ42aJdjo_Q-91" value="read" style="edgeLabel;html=1;align=center;verticalAlign=middle;resizable=0;points=[];" vertex="1" connectable="0" parent="jJbhg0X4bCZ42aJdjo_Q-90">
          <mxGeometry x="0.146" y="1" relative="1" as="geometry">
            <mxPoint as="offset" />
          </mxGeometry>
        </mxCell>
        <mxCell id="jJbhg0X4bCZ42aJdjo_Q-11" value="推荐" style="rounded=0;whiteSpace=wrap;html=1;fillColor=#d0cee2;strokeColor=#56517e;" vertex="1" parent="1">
          <mxGeometry x="320" y="275" width="80" height="20" as="geometry" />
        </mxCell>
        <mxCell id="jJbhg0X4bCZ42aJdjo_Q-88" style="edgeStyle=orthogonalEdgeStyle;rounded=0;orthogonalLoop=1;jettySize=auto;html=1;entryX=-0.002;entryY=0.813;entryDx=0;entryDy=0;dashed=1;endArrow=openAsync;endFill=0;entryPerimeter=0;fillColor=#e51400;strokeColor=#B20000;" edge="1" parent="1" source="jJbhg0X4bCZ42aJdjo_Q-12" target="jJbhg0X4bCZ42aJdjo_Q-62">
          <mxGeometry relative="1" as="geometry">
            <Array as="points">
              <mxPoint x="515" y="285" />
              <mxPoint x="515" y="550" />
              <mxPoint x="539" y="550" />
            </Array>
          </mxGeometry>
        </mxCell>
        <mxCell id="jJbhg0X4bCZ42aJdjo_Q-89" value="read" style="edgeLabel;html=1;align=center;verticalAlign=middle;resizable=0;points=[];" vertex="1" connectable="0" parent="jJbhg0X4bCZ42aJdjo_Q-88">
          <mxGeometry x="-0.4647" y="1" relative="1" as="geometry">
            <mxPoint as="offset" />
          </mxGeometry>
        </mxCell>
        <mxCell id="jJbhg0X4bCZ42aJdjo_Q-12" value="搜索" style="rounded=0;whiteSpace=wrap;html=1;fillColor=#bac8d3;strokeColor=#23445d;" vertex="1" parent="1">
          <mxGeometry x="410" y="275" width="80" height="20" as="geometry" />
        </mxCell>
        <mxCell id="jJbhg0X4bCZ42aJdjo_Q-14" value="" style="rounded=0;whiteSpace=wrap;html=1;fillColor=#1ba1e2;fontColor=#ffffff;strokeColor=#006EAF;" vertex="1" parent="1">
          <mxGeometry x="150" y="330" width="160" height="148" as="geometry" />
        </mxCell>
        <mxCell id="jJbhg0X4bCZ42aJdjo_Q-15" value="&lt;font style=&quot;font-size: 6px;&quot;&gt;业务模块&lt;/font&gt;" style="text;html=1;align=center;verticalAlign=middle;whiteSpace=wrap;rounded=0;" vertex="1" parent="1">
          <mxGeometry x="150" y="330" width="30" height="10" as="geometry" />
        </mxCell>
        <mxCell id="jJbhg0X4bCZ42aJdjo_Q-16" value="&lt;font style=&quot;font-size: 10px;&quot;&gt;图片检测模块&lt;/font&gt;" style="rounded=0;whiteSpace=wrap;html=1;fillColor=#dae8fc;strokeColor=#6c8ebf;" vertex="1" parent="1">
          <mxGeometry x="160" y="346" width="70" height="15" as="geometry" />
        </mxCell>
        <mxCell id="jJbhg0X4bCZ42aJdjo_Q-19" value="&lt;font style=&quot;font-size: 10px;&quot;&gt;代币模块&lt;/font&gt;" style="rounded=0;whiteSpace=wrap;html=1;fillColor=#dae8fc;strokeColor=#6c8ebf;" vertex="1" parent="1">
          <mxGeometry x="240" y="346" width="60" height="15" as="geometry" />
        </mxCell>
        <mxCell id="jJbhg0X4bCZ42aJdjo_Q-22" value="&lt;font style=&quot;font-size: 10px;&quot;&gt;模型训练模块&lt;/font&gt;" style="rounded=0;whiteSpace=wrap;html=1;fillColor=#dae8fc;strokeColor=#6c8ebf;" vertex="1" parent="1">
          <mxGeometry x="160" y="368.5" width="70" height="15" as="geometry" />
        </mxCell>
        <mxCell id="jJbhg0X4bCZ42aJdjo_Q-23" value="&lt;font style=&quot;font-size: 10px;&quot;&gt;模型推理模块&lt;/font&gt;" style="rounded=0;whiteSpace=wrap;html=1;fillColor=#dae8fc;strokeColor=#6c8ebf;" vertex="1" parent="1">
          <mxGeometry x="160" y="391.5" width="70" height="15" as="geometry" />
        </mxCell>
        <mxCell id="jJbhg0X4bCZ42aJdjo_Q-24" value="&lt;font style=&quot;font-size: 10px;&quot;&gt;个人中心模块&lt;/font&gt;" style="rounded=0;whiteSpace=wrap;html=1;fillColor=#dae8fc;strokeColor=#6c8ebf;" vertex="1" parent="1">
          <mxGeometry x="160" y="414" width="70" height="15" as="geometry" />
        </mxCell>
        <mxCell id="jJbhg0X4bCZ42aJdjo_Q-25" value="&lt;font style=&quot;font-size: 10px;&quot;&gt;社区模块&lt;/font&gt;" style="rounded=0;whiteSpace=wrap;html=1;fillColor=#dae8fc;strokeColor=#6c8ebf;" vertex="1" parent="1">
          <mxGeometry x="240" y="368.5" width="60" height="15" as="geometry" />
        </mxCell>
        <mxCell id="jJbhg0X4bCZ42aJdjo_Q-26" value="&lt;font style=&quot;font-size: 10px;&quot;&gt;AI玩法模块&lt;/font&gt;" style="rounded=0;whiteSpace=wrap;html=1;fillColor=#dae8fc;strokeColor=#6c8ebf;" vertex="1" parent="1">
          <mxGeometry x="160" y="436" width="70" height="15" as="geometry" />
        </mxCell>
        <mxCell id="jJbhg0X4bCZ42aJdjo_Q-27" value="&lt;font style=&quot;font-size: 10px;&quot;&gt;试穿模块&lt;/font&gt;" style="rounded=0;whiteSpace=wrap;html=1;fillColor=#dae8fc;strokeColor=#6c8ebf;" vertex="1" parent="1">
          <mxGeometry x="240" y="391.5" width="60" height="15" as="geometry" />
        </mxCell>
        <mxCell id="jJbhg0X4bCZ42aJdjo_Q-29" value="消息发送和消费" style="rounded=0;whiteSpace=wrap;html=1;fillColor=#f8cecc;strokeColor=#b85450;" vertex="1" parent="1">
          <mxGeometry x="318" y="325" width="50" height="148" as="geometry" />
        </mxCell>
        <mxCell id="jJbhg0X4bCZ42aJdjo_Q-30" value="定时任务" style="rounded=0;whiteSpace=wrap;html=1;fillColor=#fff2cc;strokeColor=#d6b656;" vertex="1" parent="1">
          <mxGeometry x="430" y="325" width="50" height="148" as="geometry" />
        </mxCell>
        <mxCell id="jJbhg0X4bCZ42aJdjo_Q-31" value="配置中心" style="rounded=0;whiteSpace=wrap;html=1;fillColor=#ffe6cc;strokeColor=#d79b00;" vertex="1" parent="1">
          <mxGeometry x="374" y="324.5" width="50" height="148" as="geometry" />
        </mxCell>
        <mxCell id="jJbhg0X4bCZ42aJdjo_Q-33" value="统一接入" style="text;html=1;align=center;verticalAlign=middle;whiteSpace=wrap;rounded=0;" vertex="1" parent="1">
          <mxGeometry x="60" y="236" width="60" height="30" as="geometry" />
        </mxCell>
        <mxCell id="jJbhg0X4bCZ42aJdjo_Q-103" style="edgeStyle=orthogonalEdgeStyle;rounded=0;orthogonalLoop=1;jettySize=auto;html=1;entryX=0.5;entryY=0;entryDx=0;entryDy=0;" edge="1" parent="1" source="jJbhg0X4bCZ42aJdjo_Q-34" target="jJbhg0X4bCZ42aJdjo_Q-7">
          <mxGeometry relative="1" as="geometry" />
        </mxCell>
        <mxCell id="jJbhg0X4bCZ42aJdjo_Q-34" value="登录校验 数据隔离 日志打印" style="rounded=0;whiteSpace=wrap;html=1;fillColor=#fad9d5;strokeColor=#ae4132;" vertex="1" parent="1">
          <mxGeometry x="140" y="240" width="350" height="20" as="geometry" />
        </mxCell>
        <mxCell id="jJbhg0X4bCZ42aJdjo_Q-107" value="mtop" style="edgeStyle=orthogonalEdgeStyle;rounded=0;orthogonalLoop=1;jettySize=auto;html=1;" edge="1" parent="1" source="jJbhg0X4bCZ42aJdjo_Q-36" target="jJbhg0X4bCZ42aJdjo_Q-39">
          <mxGeometry relative="1" as="geometry" />
        </mxCell>
        <mxCell id="jJbhg0X4bCZ42aJdjo_Q-36" value="客户端 IOS Android 鸿蒙 小程序（微信、抖音、支付宝、钉钉&lt;span style=&quot;background-color: initial;&quot;&gt;）&lt;/span&gt;" style="rounded=0;whiteSpace=wrap;html=1;fillColor=#fff2cc;strokeColor=#d6b656;" vertex="1" parent="1">
          <mxGeometry x="140" y="122" width="170" height="47" as="geometry" />
        </mxCell>
        <mxCell id="jJbhg0X4bCZ42aJdjo_Q-121" value="" style="edgeStyle=orthogonalEdgeStyle;rounded=0;orthogonalLoop=1;jettySize=auto;html=1;" edge="1" parent="1" source="jJbhg0X4bCZ42aJdjo_Q-39" target="jJbhg0X4bCZ42aJdjo_Q-34">
          <mxGeometry relative="1" as="geometry" />
        </mxCell>
        <mxCell id="jJbhg0X4bCZ42aJdjo_Q-39" value="HSF" style="rounded=0;whiteSpace=wrap;html=1;fillColor=#dae8fc;gradientColor=#7ea6e0;strokeColor=#6c8ebf;" vertex="1" parent="1">
          <mxGeometry x="140" y="198" width="350" height="20" as="geometry" />
        </mxCell>
        <mxCell id="jJbhg0X4bCZ42aJdjo_Q-108" style="edgeStyle=orthogonalEdgeStyle;rounded=0;orthogonalLoop=1;jettySize=auto;html=1;entryX=0.5;entryY=0;entryDx=0;entryDy=0;" edge="1" parent="1" source="jJbhg0X4bCZ42aJdjo_Q-41" target="jJbhg0X4bCZ42aJdjo_Q-39">
          <mxGeometry relative="1" as="geometry" />
        </mxCell>
        <mxCell id="jJbhg0X4bCZ42aJdjo_Q-109" value="http" style="edgeLabel;html=1;align=center;verticalAlign=middle;resizable=0;points=[];" vertex="1" connectable="0" parent="jJbhg0X4bCZ42aJdjo_Q-108">
          <mxGeometry x="0.1083" y="-1" relative="1" as="geometry">
            <mxPoint as="offset" />
          </mxGeometry>
        </mxCell>
        <mxCell id="jJbhg0X4bCZ42aJdjo_Q-41" value="网站" style="rounded=0;whiteSpace=wrap;html=1;fillColor=#e1d5e7;strokeColor=#9673a6;" vertex="1" parent="1">
          <mxGeometry x="320" y="122" width="170" height="47" as="geometry" />
        </mxCell>
        <mxCell id="jJbhg0X4bCZ42aJdjo_Q-47" value="协议" style="text;html=1;align=center;verticalAlign=middle;whiteSpace=wrap;rounded=0;" vertex="1" parent="1">
          <mxGeometry x="60" y="190" width="60" height="30" as="geometry" />
        </mxCell>
        <mxCell id="jJbhg0X4bCZ42aJdjo_Q-52" value="请求层" style="text;html=1;align=center;verticalAlign=middle;whiteSpace=wrap;rounded=0;" vertex="1" parent="1">
          <mxGeometry x="60" y="131" width="60" height="30" as="geometry" />
        </mxCell>
        <mxCell id="jJbhg0X4bCZ42aJdjo_Q-53" value="" style="rounded=0;whiteSpace=wrap;html=1;fillColor=#d5e8d4;strokeColor=#82b366;gradientColor=#97d077;" vertex="1" parent="1">
          <mxGeometry x="539" y="118" width="131" height="232" as="geometry" />
        </mxCell>
        <mxCell id="jJbhg0X4bCZ42aJdjo_Q-54" value="小二后台" style="text;html=1;align=center;verticalAlign=middle;whiteSpace=wrap;rounded=0;" vertex="1" parent="1">
          <mxGeometry x="580" y="130" width="60" height="30" as="geometry" />
        </mxCell>
        <mxCell id="jJbhg0X4bCZ42aJdjo_Q-55" value="模型测试" style="rounded=0;whiteSpace=wrap;html=1;fillColor=#dae8fc;gradientColor=#7ea6e0;strokeColor=#6c8ebf;" vertex="1" parent="1">
          <mxGeometry x="551.5" y="160" width="102.5" height="20" as="geometry" />
        </mxCell>
        <mxCell id="jJbhg0X4bCZ42aJdjo_Q-56" value="模版管理" style="rounded=0;whiteSpace=wrap;html=1;fillColor=#dae8fc;gradientColor=#7ea6e0;strokeColor=#6c8ebf;" vertex="1" parent="1">
          <mxGeometry x="551.5" y="190" width="102.5" height="20" as="geometry" />
        </mxCell>
        <mxCell id="jJbhg0X4bCZ42aJdjo_Q-57" value="实体管理" style="rounded=0;whiteSpace=wrap;html=1;fillColor=#dae8fc;gradientColor=#7ea6e0;strokeColor=#6c8ebf;" vertex="1" parent="1">
          <mxGeometry x="551.5" y="220" width="102.5" height="20" as="geometry" />
        </mxCell>
        <mxCell id="jJbhg0X4bCZ42aJdjo_Q-58" value="数字人生产" style="rounded=0;whiteSpace=wrap;html=1;fillColor=#dae8fc;gradientColor=#7ea6e0;strokeColor=#6c8ebf;" vertex="1" parent="1">
          <mxGeometry x="551.5" y="251" width="102.5" height="20" as="geometry" />
        </mxCell>
        <mxCell id="jJbhg0X4bCZ42aJdjo_Q-59" value="社区内容生产" style="rounded=0;whiteSpace=wrap;html=1;fillColor=#dae8fc;gradientColor=#7ea6e0;strokeColor=#6c8ebf;" vertex="1" parent="1">
          <mxGeometry x="551.5" y="281" width="102.5" height="20" as="geometry" />
        </mxCell>
        <mxCell id="jJbhg0X4bCZ42aJdjo_Q-61" value="数据处理（odps）" style="rounded=0;whiteSpace=wrap;html=1;fillColor=#ffcccc;strokeColor=#36393d;" vertex="1" parent="1">
          <mxGeometry x="539" y="486" width="130" height="30" as="geometry" />
        </mxCell>
        <mxCell id="jJbhg0X4bCZ42aJdjo_Q-62" value="OpenSearch底库" style="rounded=0;whiteSpace=wrap;html=1;fillColor=#ffe6cc;strokeColor=#d79b00;" vertex="1" parent="1">
          <mxGeometry x="539" y="526" width="130" height="30" as="geometry" />
        </mxCell>
        <mxCell id="jJbhg0X4bCZ42aJdjo_Q-64" value="告警系统" style="rounded=0;whiteSpace=wrap;html=1;fillColor=#e51400;fontColor=#ffffff;strokeColor=#B20000;" vertex="1" parent="1">
          <mxGeometry x="539" y="361" width="130" height="30" as="geometry" />
        </mxCell>
        <mxCell id="jJbhg0X4bCZ42aJdjo_Q-76" value="" style="edgeStyle=orthogonalEdgeStyle;rounded=0;orthogonalLoop=1;jettySize=auto;html=1;" edge="1" parent="1" source="jJbhg0X4bCZ42aJdjo_Q-68" target="jJbhg0X4bCZ42aJdjo_Q-69">
          <mxGeometry relative="1" as="geometry" />
        </mxCell>
        <mxCell id="jJbhg0X4bCZ42aJdjo_Q-68" value="日志处理" style="rounded=0;whiteSpace=wrap;html=1;fillColor=#ffff88;strokeColor=#36393d;" vertex="1" parent="1">
          <mxGeometry x="539" y="406" width="130" height="30" as="geometry" />
        </mxCell>
        <mxCell id="jJbhg0X4bCZ42aJdjo_Q-69" value="BI系统" style="rounded=0;whiteSpace=wrap;html=1;fillColor=#6a00ff;fontColor=#ffffff;strokeColor=#3700CC;" vertex="1" parent="1">
          <mxGeometry x="539" y="448.5" width="130" height="30" as="geometry" />
        </mxCell>
        <mxCell id="jJbhg0X4bCZ42aJdjo_Q-70" value="配置管理" style="rounded=0;whiteSpace=wrap;html=1;fillColor=#dae8fc;gradientColor=#7ea6e0;strokeColor=#6c8ebf;" vertex="1" parent="1">
          <mxGeometry x="551.5" y="310" width="102.5" height="20" as="geometry" />
        </mxCell>
        <mxCell id="jJbhg0X4bCZ42aJdjo_Q-73" style="edgeStyle=orthogonalEdgeStyle;rounded=0;orthogonalLoop=1;jettySize=auto;html=1;entryDx=0;entryDy=0;entryPerimeter=0;movable=1;resizable=1;rotatable=1;deletable=1;editable=1;locked=0;connectable=1;endArrow=blockThin;endFill=1;strokeColor=none;curved=0;" edge="1" parent="1" source="jJbhg0X4bCZ42aJdjo_Q-39" target="jJbhg0X4bCZ42aJdjo_Q-53">
          <mxGeometry relative="1" as="geometry">
            <Array as="points">
              <mxPoint x="514" y="220" />
              <mxPoint x="514" y="235" />
            </Array>
          </mxGeometry>
        </mxCell>
        <mxCell id="jJbhg0X4bCZ42aJdjo_Q-86" value="" style="endArrow=classic;startArrow=classic;html=1;rounded=0;exitX=0.5;exitY=0;exitDx=0;exitDy=0;" edge="1" parent="1" source="jJbhg0X4bCZ42aJdjo_Q-4">
          <mxGeometry width="50" height="50" relative="1" as="geometry">
            <mxPoint x="170" y="530" as="sourcePoint" />
            <mxPoint x="220" y="480" as="targetPoint" />
          </mxGeometry>
        </mxCell>
        <mxCell id="jJbhg0X4bCZ42aJdjo_Q-87" value="" style="endArrow=classic;startArrow=classic;html=1;rounded=0;exitX=0.457;exitY=-0.027;exitDx=0;exitDy=0;entryX=0.75;entryY=1;entryDx=0;entryDy=0;exitPerimeter=0;" edge="1" parent="1" source="jJbhg0X4bCZ42aJdjo_Q-6" target="jJbhg0X4bCZ42aJdjo_Q-7">
          <mxGeometry width="50" height="50" relative="1" as="geometry">
            <mxPoint x="230" y="515" as="sourcePoint" />
            <mxPoint x="230" y="490" as="targetPoint" />
          </mxGeometry>
        </mxCell>
        <mxCell id="jJbhg0X4bCZ42aJdjo_Q-93" value="" style="endArrow=block;html=1;rounded=0;fillColor=#cce5ff;strokeColor=#36393d;endFill=1;" edge="1" parent="1">
          <mxGeometry relative="1" as="geometry">
            <mxPoint x="490" y="420" as="sourcePoint" />
            <mxPoint x="540" y="420" as="targetPoint" />
          </mxGeometry>
        </mxCell>
        <mxCell id="jJbhg0X4bCZ42aJdjo_Q-94" value="write" style="edgeLabel;resizable=0;html=1;;align=center;verticalAlign=middle;" connectable="0" vertex="1" parent="jJbhg0X4bCZ42aJdjo_Q-93">
          <mxGeometry relative="1" as="geometry" />
        </mxCell>
        <mxCell id="jJbhg0X4bCZ42aJdjo_Q-98" value="" style="endArrow=classic;startArrow=classic;html=1;rounded=0;entryX=0.5;entryY=1;entryDx=0;entryDy=0;exitX=0.113;exitY=0.007;exitDx=0;exitDy=0;exitPerimeter=0;" edge="1" parent="1" source="jJbhg0X4bCZ42aJdjo_Q-7" target="jJbhg0X4bCZ42aJdjo_Q-9">
          <mxGeometry width="50" height="50" relative="1" as="geometry">
            <mxPoint x="140" y="350" as="sourcePoint" />
            <mxPoint x="190" y="300" as="targetPoint" />
          </mxGeometry>
        </mxCell>
        <mxCell id="jJbhg0X4bCZ42aJdjo_Q-99" value="" style="endArrow=classic;startArrow=classic;html=1;rounded=0;entryX=0.5;entryY=1;entryDx=0;entryDy=0;exitX=0.113;exitY=0.007;exitDx=0;exitDy=0;exitPerimeter=0;" edge="1" parent="1">
          <mxGeometry width="50" height="50" relative="1" as="geometry">
            <mxPoint x="269.77" y="320" as="sourcePoint" />
            <mxPoint x="269.77" y="294" as="targetPoint" />
          </mxGeometry>
        </mxCell>
        <mxCell id="jJbhg0X4bCZ42aJdjo_Q-105" style="edgeStyle=orthogonalEdgeStyle;rounded=0;orthogonalLoop=1;jettySize=auto;html=1;entryX=0.629;entryY=-0.006;entryDx=0;entryDy=0;entryPerimeter=0;" edge="1" parent="1" source="jJbhg0X4bCZ42aJdjo_Q-11" target="jJbhg0X4bCZ42aJdjo_Q-7">
          <mxGeometry relative="1" as="geometry" />
        </mxCell>
        <mxCell id="jJbhg0X4bCZ42aJdjo_Q-106" style="edgeStyle=orthogonalEdgeStyle;rounded=0;orthogonalLoop=1;jettySize=auto;html=1;entryX=0.886;entryY=-0.001;entryDx=0;entryDy=0;entryPerimeter=0;" edge="1" parent="1" source="jJbhg0X4bCZ42aJdjo_Q-12" target="jJbhg0X4bCZ42aJdjo_Q-7">
          <mxGeometry relative="1" as="geometry" />
        </mxCell>
        <mxCell id="jJbhg0X4bCZ42aJdjo_Q-113" value="" style="endArrow=classic;html=1;rounded=0;" edge="1" parent="1">
          <mxGeometry relative="1" as="geometry">
            <mxPoint x="490" y="210" as="sourcePoint" />
            <mxPoint x="540" y="210" as="targetPoint" />
          </mxGeometry>
        </mxCell>
        <mxCell id="jJbhg0X4bCZ42aJdjo_Q-115" value="&lt;font style=&quot;font-size: 10px;&quot;&gt;签到模块&lt;/font&gt;" style="rounded=0;whiteSpace=wrap;html=1;fillColor=#dae8fc;strokeColor=#6c8ebf;" vertex="1" parent="1">
          <mxGeometry x="240" y="414" width="60" height="15" as="geometry" />
        </mxCell>
        <mxCell id="jJbhg0X4bCZ42aJdjo_Q-116" value="&lt;font style=&quot;font-size: 10px;&quot;&gt;任务中心模块&lt;/font&gt;" style="rounded=0;whiteSpace=wrap;html=1;fillColor=#dae8fc;strokeColor=#6c8ebf;" vertex="1" parent="1">
          <mxGeometry x="160" y="457" width="70" height="15" as="geometry" />
        </mxCell>
        <mxCell id="jJbhg0X4bCZ42aJdjo_Q-118" value="" style="endArrow=classic;startArrow=classic;html=1;rounded=0;" edge="1" parent="1">
          <mxGeometry width="50" height="50" relative="1" as="geometry">
            <mxPoint x="403" y="504.61" as="sourcePoint" />
            <mxPoint x="540" y="250" as="targetPoint" />
            <Array as="points">
              <mxPoint x="403" y="489.61" />
              <mxPoint x="530" y="490" />
              <mxPoint x="530" y="350" />
              <mxPoint x="530" y="300" />
              <mxPoint x="530" y="280" />
              <mxPoint x="530" y="250" />
            </Array>
          </mxGeometry>
        </mxCell>
        <mxCell id="jJbhg0X4bCZ42aJdjo_Q-120" value="" style="endArrow=classic;html=1;rounded=0;entryX=0.5;entryY=1;entryDx=0;entryDy=0;exitX=0.5;exitY=0;exitDx=0;exitDy=0;" edge="1" parent="1" source="jJbhg0X4bCZ42aJdjo_Q-68" target="jJbhg0X4bCZ42aJdjo_Q-64">
          <mxGeometry width="50" height="50" relative="1" as="geometry">
            <mxPoint x="600" y="406" as="sourcePoint" />
            <mxPoint x="640" y="366" as="targetPoint" />
          </mxGeometry>
        </mxCell>
      </root>
    </mxGraphModel>
  </diagram>
</mxfile>
